<svg width="16" height="12" viewBox="0 0 16 12" fill="none" xmlns="http://www.w3.org/2000/svg">
<path fill-rule="evenodd" clip-rule="evenodd" d="M7.6484 11.6484C7.42337 11.8734 7.1182 11.9997 6.8 11.9997C6.4818 11.9997 6.17663 11.8734 5.9516 11.6484L1.1516 6.84839C0.926633 6.62336 0.800255 6.31819 0.800255 5.99999C0.800255 5.6818 0.926633 5.37663 1.1516 5.15159L5.9516 0.351595C6.17792 0.133005 6.48104 0.0120513 6.79568 0.0147854C7.11032 0.0175195 7.41129 0.143722 7.63378 0.366212C7.85627 0.588702 7.98247 0.889677 7.98521 1.20431C7.98794 1.51895 7.86699 1.82207 7.6484 2.04839L4.8968 4.79999H14C14.3183 4.79999 14.6235 4.92642 14.8485 5.15147C15.0736 5.37651 15.2 5.68173 15.2 5.99999C15.2 6.31825 15.0736 6.62348 14.8485 6.84852C14.6235 7.07357 14.3183 7.19999 14 7.19999H4.8968L7.6484 9.9516C7.87336 10.1766 7.99974 10.4818 7.99974 10.8C7.99974 11.1182 7.87336 11.4234 7.6484 11.6484Z" fill="white"/>
</svg>
