<svg width="16" height="16" viewBox="0 0 16 16" fill="none" xmlns="http://www.w3.org/2000/svg">
<path fill-rule="evenodd" clip-rule="evenodd" d="M3.19998 3.2C2.77563 3.2 2.36866 3.36857 2.0686 3.66863C1.76855 3.96869 1.59998 4.37565 1.59998 4.8V8C1.59998 8.42435 1.76855 8.83131 2.0686 9.13137C2.36866 9.43143 2.77563 9.6 3.19998 9.6V4.8H11.2C11.2 4.37565 11.0314 3.96869 10.7313 3.66863C10.4313 3.36857 10.0243 3.2 9.59998 3.2H3.19998ZM4.79998 8C4.79998 7.57565 4.96855 7.16869 5.2686 6.86863C5.56866 6.56857 5.97563 6.4 6.39998 6.4H12.8C13.2243 6.4 13.6313 6.56857 13.9313 6.86863C14.2314 7.16869 14.4 7.57565 14.4 8V11.2C14.4 11.6243 14.2314 12.0313 13.9313 12.3314C13.6313 12.6314 13.2243 12.8 12.8 12.8H6.39998C5.97563 12.8 5.56866 12.6314 5.2686 12.3314C4.96855 12.0313 4.79998 11.6243 4.79998 11.2V8ZM9.59998 11.2C10.0243 11.2 10.4313 11.0314 10.7313 10.7314C11.0314 10.4313 11.2 10.0243 11.2 9.6C11.2 9.17565 11.0314 8.76869 10.7313 8.46863C10.4313 8.16857 10.0243 8 9.59998 8C9.17563 8 8.76866 8.16857 8.46861 8.46863C8.16855 8.76869 7.99998 9.17565 7.99998 9.6C7.99998 10.0243 8.16855 10.4313 8.46861 10.7314C8.76866 11.0314 9.17563 11.2 9.59998 11.2Z" fill="white"/>
</svg>
